<mxfile host="app.diagrams.net" modified="2024-05-02T06:20:28.425Z" agent="Mozilla/5.0 (Windows NT 10.0; Win64; x64) AppleWebKit/537.36 (KHTML, like Gecko) Chrome/124.0.0.0 Safari/537.36" version="24.3.1" etag="rPS_fjHFw_AztmlLBqwW" type="github">
  <diagram name="Page-1" id="S-9IE-Cw2QihPBQYOvgp">
    <mxGraphModel>
      <root>
        <mxCell id="0" />
        <mxCell id="1" parent="0" />
      </root>
    </mxGraphModel>
  </diagram>
</mxfile>
